<svg xmlns="http://www.w3.org/2000/svg" viewBox="0 0 100 100" role="img" aria-label="GarudaFAI Logo">
  <defs>
    <linearGradient id="bodyGradient" x1="0%" y1="0%" x2="100%" y2="100%">
      <stop offset="0%" stop-color="#FFD700"/>
      <stop offset="100%" stop-color="#FF4500"/>
    </linearGradient>
    <linearGradient id="wingGradient" x1="0%" y1="0%" x2="100%" y2="0%">
      <stop offset="0%" stop-color="#FF4500"/>
      <stop offset="50%" stop-color="#FFD700"/>
      <stop offset="100%" stop-color="#FF4500"/>
    </linearGradient>
  </defs>
  
  <!-- Body -->
  <path d="M50 20 L80 50 L65 85 H35 L20 50 Z" fill="url(#bodyGradient)" stroke="#8B4513" stroke-width="2"/>
  
  <!-- Wings -->
  <path d="M20 50 Q35 40 50 50 Q65 40 80 50" fill="none" stroke="url(#wingGradient)" stroke-width="8" stroke-linecap="round"/>
  
  <!-- Head -->
  <circle cx="50" cy="35" r="12" fill="#8B4513"/>
  
  <!-- Beak -->
  <path d="M45 38 L50 45 L55 38" fill="none" stroke="#FFD700" stroke-width="3" stroke-linecap="round" stroke-linejoin="round"/>
  
  <!-- Eyes -->
  <circle cx="45" cy="32" r="3" fill="#FFF"/>
  <circle cx="55" cy="32" r="3" fill="#FFF"/>
  
  <!-- Crown -->
  <path d="M38 26 L50 15 L62 26" fill="none" stroke="#FFD700" stroke-width="3" stroke-linecap="round" stroke-linejoin="round"/>
  
  <!-- Tail -->
  <path d="M35 85 L50 95 L65 85" fill="none" stroke="#8B4513" stroke-width="3" stroke-linecap="round"/>
  
  <!-- AI Circuit Lines -->
  <path d="M25 60 L35 70 M75 60 L65 70" stroke="#00CED1" stroke-width="2" stroke-linecap="round"/>
  <circle cx="35" cy="70" r="2" fill="#00CED1"/>
  <circle cx="65" cy="70" r="2" fill="#00CED1"/>
</svg>

